<?xml version="1.0" encoding="utf-8"?>
<!-- Generator: Adobe Illustrator 26.3.1, SVG Export Plug-In . SVG Version: 6.00 Build 0)  -->
<svg version="1.1" id="Calque_1" xmlns="http://www.w3.org/2000/svg" xmlns:xlink="http://www.w3.org/1999/xlink" x="0px" y="0px"
	 viewBox="0 0 1000 1000" style="enable-background:new 0 0 1000 1000;" xml:space="preserve">
<style type="text/css">
	.st0{fill-rule:evenodd;clip-rule:evenodd;fill:#010202;}
</style>
<path class="st0" d="M263.2,586c2.2-6.9,4-12.9,4.9-16.1c5.7-19.3,25.8-65.4,28.8-102.3c2.3-28.1-5.3-50.8-31.2-57.2
	c-23.5-5.8-47.3,8.5-68.3,34.3c-45.3,55.5-79.6,163.4-81.6,198.7c-0.2,3.9,2.7,7.1,6.6,7.4c3.8,0.2,7.1-2.7,7.3-6.6
	c1.9-33.9,35-137.4,78.5-190.7c17-20.8,35.2-34.2,54.2-29.6c18.8,4.6,22.3,22.1,20.6,42.5c-2.9,35.8-22.7,80.7-28.3,99.4
	c-3.5,11.8-18.1,56.3-18.5,60.4c-0.4,5.2,3.3,6.9,4.5,7.4c1,0.4,5.9,1.9,9-3.6c44-79,166.1-169.8,296.2-206
	c128.9-35.9,266.1-17.8,341.9,121.4c1.8,3.4,6.1,4.6,9.5,2.8c3.4-1.8,4.6-6.1,2.8-9.5C820.7,392.9,677.3,373,542.3,410.6
	C428.4,442.2,320.7,514.9,263.2,586z"/>
<path class="st0" d="M889.1,535.4c-15.2-6.2-30.2-12.9-45.9-18c-41.9-13.5-88.2-18.6-131.6-10.8c-3.8,0.7-6.3,4.3-5.6,8.1
	c0.7,3.8,4.3,6.3,8.1,5.6c41.2-7.4,85.2-2.4,124.9,10.4c18,5.8,35,13.8,52.5,20.7c0.9,0.3,8.4,3.6,10.2,3.8c4.1,0.6,6.2-1.8,7.1-3
	c0.7-1,1.3-2.4,1.4-4.3c0-1.5-0.6-4.5-2.2-8.2c-5.3-12-21.5-38.1-23.8-42.7c-25.4-52.4-40.3-105.5-57.3-160.9
	c-1.1-3.7-5-5.8-8.7-4.6c-3.7,1.1-5.7,5-4.6,8.7c17.2,56.2,32.4,109.9,58.1,162.9C873.1,506.2,882.4,523.2,889.1,535.4z"/>
</svg>
