<?xml version="1.0" encoding="utf-8"?>
<!-- Generator: Adobe Illustrator 26.3.1, SVG Export Plug-In . SVG Version: 6.00 Build 0)  -->
<svg version="1.1" xmlns="http://www.w3.org/2000/svg" xmlns:xlink="http://www.w3.org/1999/xlink" x="0px" y="0px"
	 viewBox="0 0 1000 1000" style="enable-background:new 0 0 1000 1000;" xml:space="preserve">
<style type="text/css">
	.st0{display:none;}
	.st1{display:inline;fill-rule:evenodd;clip-rule:evenodd;fill:#010202;}
	.st2{clip-path:url(#SVGID_00000004545627047161336600000005733694696994792088_);}
	.st3{fill-rule:evenodd;clip-rule:evenodd;fill:#010202;}
</style>
<g id="Calque_1" class="st0">
	<path class="st1" d="M263.2,586c2.2-6.9,4-12.9,4.9-16.1c5.7-19.3,25.8-65.4,28.8-102.3c2.3-28.1-5.3-50.8-31.2-57.2
		c-23.5-5.8-47.3,8.5-68.3,34.3c-45.3,55.5-79.6,163.4-81.6,198.7c-0.2,3.9,2.7,7.1,6.6,7.4c3.8,0.2,7.1-2.7,7.3-6.6
		c1.9-33.9,35-137.4,78.5-190.7c17-20.8,35.2-34.2,54.2-29.6c18.8,4.6,22.3,22.1,20.6,42.5c-2.9,35.8-22.7,80.7-28.3,99.4
		c-3.5,11.8-18.1,56.3-18.5,60.4c-0.4,5.2,3.3,6.9,4.5,7.4c1,0.4,5.9,1.9,9-3.6c44-79,166.1-169.8,296.2-206
		c128.9-35.9,266.1-17.8,341.9,121.4c1.8,3.4,6.1,4.6,9.5,2.8c3.4-1.8,4.6-6.1,2.8-9.5C820.7,392.9,677.3,373,542.3,410.6
		C428.4,442.2,320.7,514.9,263.2,586z"/>
	<path class="st1" d="M889.1,535.4c-15.2-6.2-30.2-12.9-45.9-18c-41.9-13.5-88.2-18.6-131.6-10.8c-3.8,0.7-6.3,4.3-5.6,8.1
		c0.7,3.8,4.3,6.3,8.1,5.6c41.2-7.4,85.2-2.4,124.9,10.4c18,5.8,35,13.8,52.5,20.7c0.9,0.3,8.4,3.6,10.2,3.8c4.1,0.6,6.2-1.8,7.1-3
		c0.7-1,1.3-2.4,1.4-4.3c0-1.5-0.6-4.5-2.2-8.2c-5.3-12-21.5-38.1-23.8-42.7c-25.4-52.4-40.3-105.5-57.3-160.9
		c-1.1-3.7-5-5.8-8.7-4.6c-3.7,1.1-5.7,5-4.6,8.7c17.2,56.2,32.4,109.9,58.1,162.9C873.1,506.2,882.4,523.2,889.1,535.4z"/>
</g>
<g id="Calque_2">
	<g>
		<defs>
			
				<rect id="SVGID_1_" x="104.4" y="63.9" transform="matrix(0.9174 -0.398 0.398 0.9174 -141.559 236.9519)" width="791.2" height="791.2"/>
		</defs>
		<clipPath id="SVGID_00000132067282049517524040000013910503700950384268_">
			<use xlink:href="#SVGID_1_"  style="overflow:visible;"/>
		</clipPath>
		<g style="clip-path:url(#SVGID_00000132067282049517524040000013910503700950384268_);">
			<path class="st3" d="M545.8,628.6c101.2,8.9,209,0.8,299.1-45.9c32.8-17,59.8-40.3,87.8-63.9c2-1.7,2.2-4.6,0.5-6.6
				c-1.7-2-4.6-2.2-6.6-0.5c-27.4,23.2-53.9,46.1-86,62.8c-88.8,46-195.2,53.6-294.9,44.8l0-1.5c0.2-16.8-12.6-35.6-32.2-52.7
				c-28.1-24.5-69.8-45.7-102.4-53.4c-14.6-3.4-27.5-4.1-36.7-1.4c-7.2,2.1-12.4,6.2-15.1,12.2c-5.8,12.9,0.9,27.6,16,41.5
				c31.6,29.1,98.9,56.1,130.9,60.3c10,1.3,20.1,2.5,30.2,3.5c0,2.9,0.1,5.8,0,8.7c-0.3,8-1.7,15.5-7.4,22.7
				c-9,11.3-22.5,18.4-37.6,23c-23.5,7.2-50.5,8.1-71,7.7C306.8,687.5,227,632.5,169,567.7c-58.6-65.4-95.3-140.8-122.5-182.9
				c-1.4-2.2-4.3-2.8-6.4-1.4c-2.2,1.4-2.8,4.3-1.4,6.4C66,432.2,103,508.1,162,573.9c59.6,66.5,141.5,122.8,258.3,125.2
				c21.3,0.4,49.5-0.6,73.9-8.1c16.9-5.2,32-13.5,42.1-26.1C545.5,653.5,545.9,641.7,545.8,628.6z M536.4,618.3l0-0.8
				c0.2-14.7-11.9-30.6-29-45.5c-27-23.5-67.1-44-98.4-51.3c-10.7-2.5-20.4-3.5-28-2.4c-6.3,0.9-11.1,3.3-13.2,8
				c-2,4.4-1.6,9.1,0.6,13.9c2.5,5.6,7.2,11.2,13.3,16.9C412,585,476.8,611,507.5,615C517.1,616.2,526.7,617.3,536.4,618.3z"/>
			<path class="st3" d="M937.8,500.8c0.4,2,0.2,4.8-0.1,7.9c-0.7,7.3-2.6,15.6-3.4,19.5c-0.5,2.5,1.2,5,3.7,5.5
				c2.5,0.5,5-1.2,5.5-3.7c0.9-4.8,3.5-15.9,3.8-24.2c0.2-4.5-0.4-8.3-1.7-10.7c-2.2-4.1-6.6-5.2-13.1-2.2
				c-7.7,3.6-20.5,13.8-34.7,14.3c-2.6,0.1-4.6,2.3-4.5,4.8c0.1,2.6,2.3,4.6,4.8,4.5c13.5-0.5,26-8.5,34.7-13.4
				C934.5,502.2,936.6,501.3,937.8,500.8z"/>
		</g>
	</g>
</g>
</svg>
