<?xml version="1.0" encoding="utf-8"?>
<!-- Generator: Adobe Illustrator 26.3.1, SVG Export Plug-In . SVG Version: 6.00 Build 0)  -->
<svg version="1.1" xmlns="http://www.w3.org/2000/svg" xmlns:xlink="http://www.w3.org/1999/xlink" x="0px" y="0px"
	 viewBox="0 0 1000 1000" style="enable-background:new 0 0 1000 1000;" xml:space="preserve">
<style type="text/css">
	.st0{display:none;}
	.st1{display:inline;fill-rule:evenodd;clip-rule:evenodd;fill:#010202;}
	.st2{display:inline;}
	.st3{clip-path:url(#SVGID_00000132087541731531352440000000106133734431329203_);}
	.st4{fill-rule:evenodd;clip-rule:evenodd;fill:#010202;}
	.st5{fill:#010202;}
</style>
<g id="Calque_1" class="st0">
	<path class="st1" d="M263.2,586c2.2-6.9,4-12.9,4.9-16.1c5.7-19.3,25.8-65.4,28.8-102.3c2.3-28.1-5.3-50.8-31.2-57.2
		c-23.5-5.8-47.3,8.5-68.3,34.3c-45.3,55.5-79.6,163.4-81.6,198.7c-0.2,3.9,2.7,7.1,6.6,7.4c3.8,0.2,7.1-2.7,7.3-6.6
		c1.9-33.9,35-137.4,78.5-190.7c17-20.8,35.2-34.2,54.2-29.6c18.8,4.6,22.3,22.1,20.6,42.5c-2.9,35.8-22.7,80.7-28.3,99.4
		c-3.5,11.8-18.1,56.3-18.5,60.4c-0.4,5.2,3.3,6.9,4.5,7.4c1,0.4,5.9,1.9,9-3.6c44-79,166.1-169.8,296.2-206
		c128.9-35.9,266.1-17.8,341.9,121.4c1.8,3.4,6.1,4.6,9.5,2.8c3.4-1.8,4.6-6.1,2.8-9.5C820.7,392.9,677.3,373,542.3,410.6
		C428.4,442.2,320.7,514.9,263.2,586z"/>
	<path class="st1" d="M889.1,535.4c-15.2-6.2-30.2-12.9-45.9-18c-41.9-13.5-88.2-18.6-131.6-10.8c-3.8,0.7-6.3,4.3-5.6,8.1
		c0.7,3.8,4.3,6.3,8.1,5.6c41.2-7.4,85.2-2.4,124.9,10.4c18,5.8,35,13.8,52.5,20.7c0.9,0.3,8.4,3.6,10.2,3.8c4.1,0.6,6.2-1.8,7.1-3
		c0.7-1,1.3-2.4,1.4-4.3c0-1.5-0.6-4.5-2.2-8.2c-5.3-12-21.5-38.1-23.8-42.7c-25.4-52.4-40.3-105.5-57.3-160.9
		c-1.1-3.7-5-5.8-8.7-4.6c-3.7,1.1-5.7,5-4.6,8.7c17.2,56.2,32.4,109.9,58.1,162.9C873.1,506.2,882.4,523.2,889.1,535.4z"/>
</g>
<g id="Calque_2" class="st0">
	<g class="st2">
		<defs>
			
				<rect id="SVGID_1_" x="104.4" y="63.9" transform="matrix(0.9174 -0.398 0.398 0.9174 -141.559 236.9519)" width="791.2" height="791.2"/>
		</defs>
		<clipPath id="SVGID_00000088099550236656201820000011289458469542676879_">
			<use xlink:href="#SVGID_1_"  style="overflow:visible;"/>
		</clipPath>
		<g style="clip-path:url(#SVGID_00000088099550236656201820000011289458469542676879_);">
			<path class="st4" d="M545.8,628.6c101.2,8.9,209,0.8,299.1-45.9c32.8-17,59.8-40.3,87.8-63.9c2-1.7,2.2-4.6,0.5-6.6
				c-1.7-2-4.6-2.2-6.6-0.5c-27.4,23.2-53.9,46.1-86,62.8c-88.8,46-195.2,53.6-294.9,44.8l0-1.5c0.2-16.8-12.6-35.6-32.2-52.7
				c-28.1-24.5-69.8-45.7-102.4-53.4c-14.6-3.4-27.5-4.1-36.7-1.4c-7.2,2.1-12.4,6.2-15.1,12.2c-5.8,12.9,0.9,27.6,16,41.5
				c31.6,29.1,98.9,56.1,130.9,60.3c10,1.3,20.1,2.5,30.2,3.5c0,2.9,0.1,5.8,0,8.7c-0.3,8-1.7,15.5-7.4,22.7
				c-9,11.3-22.5,18.4-37.6,23c-23.5,7.2-50.5,8.1-71,7.7C306.8,687.5,227,632.5,169,567.7c-58.6-65.4-95.3-140.8-122.5-182.9
				c-1.4-2.2-4.3-2.8-6.4-1.4c-2.2,1.4-2.8,4.3-1.4,6.4C66,432.2,103,508.1,162,573.9c59.6,66.5,141.5,122.8,258.3,125.2
				c21.3,0.4,49.5-0.6,73.9-8.1c16.9-5.2,32-13.5,42.1-26.1C545.5,653.5,545.9,641.7,545.8,628.6z M536.4,618.3l0-0.8
				c0.2-14.7-11.9-30.6-29-45.5c-27-23.5-67.1-44-98.4-51.3c-10.7-2.5-20.4-3.5-28-2.4c-6.3,0.9-11.1,3.3-13.2,8
				c-2,4.4-1.6,9.1,0.6,13.9c2.5,5.6,7.2,11.2,13.3,16.9C412,585,476.8,611,507.5,615C517.1,616.2,526.7,617.3,536.4,618.3z"/>
			<path class="st4" d="M937.8,500.8c0.4,2,0.2,4.8-0.1,7.9c-0.7,7.3-2.6,15.6-3.4,19.5c-0.5,2.5,1.2,5,3.7,5.5
				c2.5,0.5,5-1.2,5.5-3.7c0.9-4.8,3.5-15.9,3.8-24.2c0.2-4.5-0.4-8.3-1.7-10.7c-2.2-4.1-6.6-5.2-13.1-2.2
				c-7.7,3.6-20.5,13.8-34.7,14.3c-2.6,0.1-4.6,2.3-4.5,4.8c0.1,2.6,2.3,4.6,4.8,4.5c13.5-0.5,26-8.5,34.7-13.4
				C934.5,502.2,936.6,501.3,937.8,500.8z"/>
		</g>
	</g>
</g>
<g id="Calque_3" class="st0">
	<path class="st1" d="M441.8,600.9c-11.2,20.7-14.5,44.7-6.6,71.5c24.6,83,89.8,116.4,166.9,120.6c112.6,6.2,251-50.6,319.7-101.2
		c3.3-2.4,3.9-7,1.6-10.2c-2.4-3.3-7-4-10.2-1.6c-66.7,49.1-200.9,104.4-310.3,98.3c-70.8-3.9-131.1-34-153.7-110.2
		c-6.7-22.7-3.9-42.9,5.6-60.4c11.6,6,23.2,11.6,34.7,16.7c32,14.2,120.7,35.4,185.9,27.1c46.7-5.9,81.3-26.9,79.9-72.5
		c-0.8-25.3-16.6-43.6-41.8-54.7c-34.6-15.3-87.5-16.9-138.1-5.8c-42.2,9.2-82.7,27-109.9,52.3c-6,5.6-11.3,11.4-15.9,17.7
		C290.8,502.4,141.9,341.9,78.8,176.7c-1.5-3.8-5.7-5.7-9.4-4.2c-3.8,1.4-5.7,5.7-4.2,9.4C129.3,349.8,280.3,513,441.8,600.9z
		 M462.8,595.5c10.9,5.6,21.8,10.8,32.7,15.7c30.7,13.6,115.7,33.9,178.1,26c38.3-4.8,68.3-20.2,67.2-57.6
		c-0.6-19.6-13.6-33.2-33.1-41.8c-21.4-9.5-50.4-13-81.3-11.4c-46.9,2.5-98.2,17-134.4,42.1C480.5,576.4,470.5,585.4,462.8,595.5z"
		/>
	<path class="st1" d="M318.6,306.6c-86-14.4-177.7-70.3-241.3-130.6c-2.9-2.8-7.6-2.7-10.3,0.3s-2.7,7.6,0.3,10.3
		c65.6,62.2,160.3,119.5,249,134.4c4,0.7,7.7-2,8.4-6C325.2,311,322.5,307.2,318.6,306.6z"/>
	<path class="st1" d="M65.6,187.5c36.2,62.9,41.6,159.6,23.6,230.2c-1,3.9,1.4,7.9,5.3,8.9c3.9,1,7.9-1.4,8.9-5.3
		c18.8-73.9,12.9-175.2-25.1-241.1c-2-3.5-6.5-4.7-10-2.7C64.8,179.6,63.6,184,65.6,187.5z"/>
</g>
<g id="Calque_4" class="st0">
	<path class="st1" d="M1040.5,452c-201.5-18.7-406.4-8.3-608.4-11.7c-133.6-2.2-267.2-7.7-400.6-9.5c-4,0-7.3,3.1-7.3,7.2
		c-0.1,4,3.2,7.3,7.2,7.3c133.5,1.8,267,7.2,400.6,9.5c201.6,3.4,406.1-7,607.3,11.6c4,0.4,7.5-2.6,7.9-6.5
		C1047.4,455.9,1044.5,452.4,1040.5,452z"/>
</g>
<g id="Calque_5" class="st0">
	<path class="st1" d="M698.5,665.9c69.2,1.7,139.9-1.7,206,22c3.9,1.4,8.3-0.6,9.7-4.6c1.4-3.9-0.6-8.3-4.6-9.7
		c-67.7-24.2-140-21.2-210.8-22.9c-4.2-0.1-7.7,3.2-7.8,7.4C691,662.4,694.3,665.8,698.5,665.9z"/>
	<path class="st1" d="M692.3,565.5c21.6-19.8,45.1-34.7,73.6-42.1c4.1-1,6.5-5.2,5.5-9.2c-1.1-4.1-5.2-6.5-9.3-5.4
		c-30.9,8-56.6,24-80,45.6c-3.1,2.8-3.3,7.6-0.5,10.7C684.4,568.1,689.2,568.3,692.3,565.5z"/>
	<path class="st1" d="M632.3,348.8c9.9-33.9,29.4-60.4,59.2-79.6c3.5-2.3,4.5-7,2.3-10.5c-2.2-3.5-6.9-4.5-10.5-2.3
		c-33,21.2-54.6,50.5-65.6,88.1c-1.2,4,1.2,8.2,5.2,9.4C626.9,355.2,631.2,352.9,632.3,348.8z"/>
	<path class="st1" d="M291.5,302.8c-5.9,6.9-11.2,14.4-15.7,22.3c-2,3.5-5.5,11.1-6.1,17.5c-0.6,6.9,1.7,12.7,7.7,15.7
		c8,4,14.3,3.6,19.3,1.2c4.7-2.4,8.4-7,10.8-13.2c4.5-11.8,3.8-29.9,1.5-40.3c6.3-6.5,13.2-12.4,20.5-17.6
		C384.5,249.7,465,264,527,322.2c21.7,20.4,32.1,63.1,37.6,109.3c8.5,71.8,3.6,152.1,3,175.6c-0.2,5.8,0.4,9.3,0.7,9.9
		c1.4,3.4,3.9,4.3,5.7,4.6c2.5,0.5,4.6,0,6.2-0.9c2.2-1.2,4-3.2,4.9-6.4c0.5-1.7,0.6-4.2,0.5-6.8c-0.1-1.8-0.4-3.8-0.1-5.1
		c2.4-8.3,5.2-16.3,8-24.4c9.3-27.3,21.4-52.9,34.7-78.4c42.5-81.2,83.6-167,153.3-228.8c3.1-2.8,3.4-7.6,0.6-10.7
		c-2.8-3.1-7.6-3.4-10.7-0.6c-71.1,63.1-113.3,150.3-156.6,233.1c-11.4,21.7-21.8,43.5-30.5,66.3c0.9-40.3,0.5-96-6.8-145.3
		c-6.6-43.9-19-82.6-40.1-102.4c-67.9-63.7-156.4-77.5-216.5-34.9c-6.4,4.6-12.6,9.6-18.3,15c-31.5-56.8-98.8-79.6-158.3-52.4
		c-3.8,1.7-5.5,6.2-3.8,10c1.8,3.8,6.2,5.5,10.1,3.7C204.2,228.1,265,250,291.5,302.8z M295.9,321.9c-2.5,3.5-4.7,7.1-6.9,10.8
		c-1.1,2-3.1,5.8-3.9,9.6c-0.2,0.9-0.2,2.3-0.2,2.9c2.1,1,3.7,1.5,5.1,0.9c1.7-0.8,2.5-2.8,3.3-4.9
		C295.4,335.6,296.1,328.4,295.9,321.9z"/>
</g>
<g id="Calque_6" class="st0">
	<path class="st1" d="M192.2,735.6c-33-14.8-65.8-29.2-98.3-44.9c-7-3.4-9.9-11.7-6.6-18.7c3.4-7,11.8-9.9,18.7-6.6
		c32.4,15.7,64.9,29.9,97.6,44.6c7.1,3.2,10.2,11.5,7.1,18.5C207.6,735.6,199.3,738.8,192.2,735.6z"/>
	<path class="st1" d="M434.6,560.4c-47.9-103.7-90.6-209.8-136.2-314.5c-3.1-7.1,0.2-15.4,7.2-18.5c7.1-3.1,15.4,0.1,18.5,7.2
		c45.6,104.5,88.1,210.4,135.9,314c3.3,7.1,0.2,15.4-6.8,18.6C446.2,570.5,437.9,567.4,434.6,560.4z"/>
	<path class="st1" d="M845.7,533.5c15.3-95.4,33.3-190.5,47.6-286c1.2-7.6,8.3-12.9,15.9-11.8c7.7,1.1,13,8.3,11.8,15.9
		c-14.3,95.7-32.3,190.9-47.7,286.4c-1.2,7.6-8.4,12.8-16,11.6C849.6,548.3,844.5,541.1,845.7,533.5z"/>
</g>
<g id="Calque_7" class="st0">
	<path class="st1" d="M610.3,172.6c63.7,17.9,130.4,26.9,195,35.1c13.9,1.7,26.9-7.9,27.9-21.5c2-13.6-8-26.1-20.9-27.8
		c-62.7-8-127.4-16.5-188.1-33.7c-12.9-3.7-26.9,3.9-30.9,17.2C589.4,155,597.4,168.8,610.3,172.6z"/>
	<path class="st1" d="M417.3,425.9c102.5,104.6,217.9,195.7,318.4,303.1c9,10,24.9,10.6,34.8,1.2c10-9.4,10.9-25.1,1-35.2
		C671,587.4,555.6,496,453.1,391.1c-10-9.8-25.9-9.9-35.8-0.3C408.3,400.4,407.3,416.1,417.3,425.9z"/>
	<path class="st1" d="M225.2,828.2c-3-59.9-6-119.7-9-179.6c0-13.7-11.9-24.3-25.9-23.6c-13.9,0.7-23.9,12.3-23.9,26.1
		c3,60,6,119.9,9,179.9c1,13.7,12.9,24.2,26.9,23.5C215.3,853.7,226.2,841.9,225.2,828.2z"/>
</g>
<g id="Calque_8" class="st0">
	<path class="st1" d="M336.3,431.4c-11.2-0.2-30-3.8-47.1-4.8c-14.9-0.9-28.9,0.3-38.5,4.5c-9.5,4.2-16.5,11.6-21.3,20.8
		c-4.9,9.4-7.4,21-9.8,30.1c-10.1,38.2-16.6,77.3-25.5,115.8c-2.3,9.8,3.8,19.7,13.6,22c9.9,2.3,19.7-3.9,22-13.7
		c8.8-38.1,15.3-76.9,25.3-114.7c1.6-5.9,2.9-13.3,5.6-19.8c1.1-2.8,2-5.8,4.6-6.9c5.5-2.3,13.3-2,21.7-1.5
		c17.7,1.1,37,4.7,48.7,4.9c10.1,0.2,18.5-7.9,18.6-17.9C354.4,440,346.4,431.6,336.3,431.4z"/>
	<path class="st1" d="M331.4,510.7c-27.5,1.5-55.6,1.4-83.2,1.2c-10.1-0.1-18.4,8-18.5,18.1c0,10.1,8,18.4,18.2,18.5
		c28.3,0.2,57.2,0.3,85.5-1.2c10.1-0.5,17.8-9.2,17.3-19.3C350.1,517.9,341.5,510.2,331.4,510.7z"/>
	<path class="st1" d="M376,471.5c-1.3,10.2-3.4,25.5-4.1,29c-6.5,30.2-13,60.3-19.9,90.3c-2.3,9.9,3.9,19.7,13.7,22
		c9.9,2.2,19.7-3.9,22-13.8c6.9-30.2,13.5-60.5,20-90.8c1.2-5.6,5-30.3,5.9-41.2c0.6-7.1-0.7-11.8-1.1-13.1
		c-1.9-4.9-5.1-7.5-7.7-9.1c-5.3-3.2-11.3-3.9-17.9-0.5c-1.1,0.6-7.8,4.1-11.1,16.9C374.8,464.7,375,468.2,376,471.5z"/>
	<path class="st1" d="M460.5,545.4c25.5-11.8,44.1-38,47.6-61.9c2.2-15.6-1.5-30.1-11.5-41c-9-9.8-23.7-17.2-46.5-17.3
		c-11.6,0-22.5,4-33.1,8.4c-12.2,5.2-24.6,12.1-34.1,21.5c-7.2,7.1-7.2,18.7-0.1,25.9c7.1,7.2,18.7,7.2,25.9,0.1
		c6.2-6.1,14.6-10.3,22.6-13.7c6.1-2.5,12.1-5.6,18.9-5.5c10.5,0,17.5,1.6,20.5,6.8c2.6,4.4,1.6,10.2-0.3,15.8
		c-4.2,12-14.5,23.9-27.7,28.8c-12.4,4.5-23.6,3.9-36.4,3.5c-15.8-0.6-18.7,11.5-19.3,14.5c-1,4.4-1.3,11.4,5.8,17.8
		c1,0.8,3,2.4,6.2,3.7c2.4,1.1,7.3,2.6,9.4,3.6c5.6,2.6,11.4,5.4,16.6,8.8c16.5,10.6,31.7,23.7,42.4,40.3c5.4,8.5,16.7,11,25.2,5.5
		c8.5-5.4,11-16.7,5.6-25.2C488.2,570,475.1,556.7,460.5,545.4z"/>
	<path class="st1" d="M680.4,419.6c-15.1-0.9-38-6.3-58.9-6.8c-18.2-0.5-35.1,2.6-47.2,11.3c-14.3,10.2-23.7,26.2-29.8,44.5
		c-7.3,22.4-9.6,48.7-13.4,68c-1.8,9.3-4.5,20.1-3.8,29.9c0.6,9.9,4.1,19.1,12,26.8c10.5,10.2,25.2,15.4,41.5,16.9
		c19,1.8,40.2-1.4,55.2-2.7c10.1-0.9,17.5-9.8,16.6-19.9c-0.9-10-9.8-17.5-19.8-16.6c-11.2,1-26.4,3.3-41,3.1
		c-10.3-0.1-20.6-0.8-27-7.1c-2.2-2.1-1.2-5.1-0.8-8c0.7-5.2,2.1-10.5,3-15.3c3-15.3,4.9-35.2,9.5-53.8c3.6-14.5,8.4-28.4,19.1-36
		c8.5-6.1,21.4-5.1,34.3-3.9c17.8,1.6,36,5.4,48.6,6.2c10,0.6,18.7-7.1,19.3-17.2C698.2,428.8,690.5,420.1,680.4,419.6z"/>
	<path class="st1" d="M655.9,495c-27.9-1.8-55.9,0-83.8,0.6c-10.1,0.2-18.1,8.5-18,18.7c0.2,10.1,8.6,18.1,18.6,17.9
		c26.8-0.5,53.9-2.4,80.7-0.6c10,0.6,18.8-7,19.4-17.1C673.6,504.3,666,495.6,655.9,495z"/>
	<path class="st1" d="M732.9,554.5c0.1-1.7,0.4-4.4,0.7-6.1c1.1-5.9,2.8-11.6,3.3-15.5c2.1-15.1,4.1-34,8.7-51.7
		c3.8-14.6,9-28.6,19.2-37.3c2.6-2.3,6.4-3,10.5-3.7c6.6-1.1,14.1-1.1,21.6-0.8c18.7,0.7,37.7,3,49.6,1.5
		c10-1.2,17.1-10.4,15.9-20.4c-1.3-10-10.5-17.1-20.5-15.9c-12.9,1.7-35.2-2.2-54.9-1.9c-18.5,0.2-35.2,4.2-45.8,13.3
		c-12.7,10.8-21.5,26.3-27.4,43.9c-7.5,22.4-10.3,48.2-13,68c-1.1,7.3-5.2,20.5-4.4,30.6c0.7,8.9,4,16.5,10.2,21.9
		c11,9.7,25.7,14.4,41.8,15.7c18.9,1.5,39.9-1.8,55.3-3.3c10.1-0.9,17.4-9.9,16.5-20c-0.9-10-9.9-17.4-19.9-16.4
		c-11.7,1.1-26.8,3.6-41.4,3.5C749.2,559.7,739.8,559.1,732.9,554.5z"/>
	<path class="st1" d="M834.4,488.5c-30.6-0.6-60.7-1.4-91.2,0.1c-10.1,0.5-17.9,9.1-17.4,19.2c0.5,10.1,9.1,17.8,19.2,17.3
		c29.6-1.5,58.9-0.7,88.5-0.1c10.1,0.2,18.5-7.8,18.7-17.9C852.5,497,844.5,488.7,834.4,488.5z"/>
</g>
<g id="Calque_9">
	<path class="st4" d="M855.5,351.8c-152.5,283.7-457.3,399-740.3,239.3c-9.4-5.3-21.4-2-26.7,7.3c-5.3,9.5-2,21.4,7.4,26.8
		C399.3,796.5,726.5,674.3,890,370.4c5.1-9.5,1.5-21.4-8-26.6C872.5,338.8,860.6,342.3,855.5,351.8z"/>
	<path class="st5" d="M353.3,469.4c31.5,0,57.1-25.5,57.1-57.1s-25.5-57.1-57.1-57.1s-57.1,25.5-57.1,57.1S321.8,469.4,353.3,469.4z
		"/>
	<path class="st5" d="M589.6,408.7c30.9,0,55.9-25,55.9-55.9c0-30.9-25-55.9-55.9-55.9s-55.9,25-55.9,55.9
		C533.6,383.7,558.7,408.7,589.6,408.7z"/>
</g>
</svg>
